<?xml version="1.0" encoding="utf-8"?>
<!-- Designed by Vexels.com - 2020 All Rights Reserved - https://vexels.com/terms-and-conditions/  -->
<svg version="1.1" id="Layer_1" xmlns="http://www.w3.org/2000/svg" xmlns:xlink="http://www.w3.org/1999/xlink" x="0px" y="0px"
	 viewBox="0 0 1200 1200" enable-background="new 0 0 1200 1200" xml:space="preserve">
<g>
	<path fill="#08175B" d="M1133.594,406.51c-15.897-21.494-40.347-33.825-67.08-33.825H334.035c-0.447,0-0.866,0.108-1.306,0.132
		l-29.871-96.746c-10.856-35.175-42.882-58.812-79.697-58.812H74.769C61.088,217.258,50,228.346,50,242.027
		c0,13.681,11.088,24.769,24.769,24.769h148.393c14.949,0,27.952,9.598,32.364,23.884l147.348,477.257
		c6.26,20.285,19.692,36.528,36.893,46.818c17.609-17.079,41.58-27.637,68.05-27.637c32.195,0,60.67,15.625,78.495,39.631h283.571
		c17.827-24.005,46.299-39.631,78.495-39.631c27.418,0,52.165,11.312,69.925,29.485c18.71-10.145,33.291-27.279,39.892-48.816
		l88.066-287.231C1154.106,454.998,1149.481,428.008,1133.594,406.51z M1098.897,466.033l-88.076,287.235
		c-4.383,14.32-17.396,23.942-32.384,23.942H482.57c-14.949,0-27.952-9.598-32.364-23.884L351.94,422.222h714.574
		c10.856,0,20.783,5.007,27.246,13.739C1100.213,444.689,1102.09,455.651,1098.897,466.033z"/>
	<path fill="#FF7F29" d="M1066.514,422.222H351.94l98.266,331.104c4.412,14.286,17.416,23.884,32.364,23.884h495.867
		c14.987,0,28.001-9.622,32.384-23.942l88.076-287.235c3.193-10.382,1.316-21.344-5.138-30.071
		C1087.297,427.23,1077.37,422.222,1066.514,422.222z M905.717,682.908H578.89c-8.205,0-14.862-6.652-14.862-14.862
		c0-8.21,6.657-14.862,14.862-14.862h326.827c8.205,0,14.862,6.652,14.862,14.862C920.579,676.257,913.922,682.908,905.717,682.908z
		 M933.515,581.021H557.71c-8.205,0-14.862-6.652-14.862-14.862c0-8.21,6.657-14.862,14.862-14.862h375.805
		c8.205,0,14.862,6.652,14.862,14.862C948.376,574.369,941.719,581.021,933.515,581.021z"/>
	<path fill="#ED2F2F" d="M933.515,551.298H557.71c-8.205,0-14.862,6.652-14.862,14.862c0,8.21,6.657,14.862,14.862,14.862h375.805
		c8.205,0,14.862-6.652,14.862-14.862C948.376,557.95,941.719,551.298,933.515,551.298z"/>
	<path fill="#ED2F2F" d="M905.717,653.185H578.89c-8.205,0-14.862,6.652-14.862,14.862c0,8.21,6.657,14.862,14.862,14.862h326.827
		c8.205,0,14.862-6.652,14.862-14.862C920.579,659.837,913.922,653.185,905.717,653.185z"/>
	<path fill="#08175B" d="M948.376,787.118c-32.195,0-60.668,15.625-78.495,39.631c-12.08,16.272-19.317,36.358-19.317,58.182
		c0,54.02,43.794,97.812,97.812,97.812c54.023,0,97.812-43.792,97.812-97.812c0-26.604-10.655-50.695-27.887-68.328
		C1000.541,798.43,975.794,787.118,948.376,787.118z M946.427,932.506c-26.276,0-47.577-21.301-47.577-47.576
		s21.301-47.577,47.577-47.577c26.276,0,47.577,21.301,47.577,47.577S972.703,932.506,946.427,932.506z"/>
	<circle fill="#ED2F2F" cx="946.427" cy="884.93" r="47.576"/>
	<path fill="#08175B" d="M507.816,787.118c-26.47,0-50.441,10.558-68.05,27.637c-18.33,17.777-29.764,42.625-29.764,70.176
		c0,54.02,43.796,97.812,97.814,97.812c54.021,0,97.812-43.792,97.812-97.812c0-21.824-7.235-41.91-19.317-58.182
		C568.486,802.743,540.011,787.118,507.816,787.118z M505.864,932.506c-26.274,0-47.577-21.301-47.577-47.576
		s21.303-47.577,47.577-47.577c26.276,0,47.577,21.301,47.577,47.577S532.14,932.506,505.864,932.506z"/>
	<circle fill="#ED2F2F" cx="505.864" cy="884.93" r="47.576"/>
</g>
</svg>
